<svg xmlns="http://www.w3.org/2000/svg" xmlns:xlink="http://www.w3.org/1999/xlink" preserveAspectRatio="xMidYMid" width="80" height="57" viewBox="0 0 80 57">
  <defs>
    <style>
      .cls-1 {
        fill: #d6437a;
        fill-rule: evenodd;
      }
    </style>
  </defs>
  <path d="M79.999,31.771 C79.999,38.635 75.003,44.305 68.491,45.304 C66.671,52.043 60.591,57.003 53.350,57.003 C48.878,57.003 44.852,55.104 41.991,52.071 C38.956,54.071 35.348,55.254 31.454,55.254 C24.201,55.254 17.889,51.224 14.558,45.264 C6.510,45.227 -0.003,38.621 -0.003,30.474 C-0.003,22.304 6.546,15.680 14.626,15.680 C14.762,15.680 14.894,15.697 15.029,15.701 C15.739,8.458 21.779,2.800 29.128,2.800 C32.073,2.800 34.797,3.725 37.063,5.280 C38.722,2.137 41.994,-0.003 45.762,-0.003 C50.040,-0.003 53.671,2.758 55.035,6.610 C56.912,5.411 59.129,4.708 61.514,4.708 C68.234,4.708 73.681,10.217 73.681,17.012 C73.681,18.033 73.545,19.020 73.313,19.968 C77.310,22.352 79.999,26.739 79.999,31.771 Z" class="cls-1"/>
</svg>
