<svg xmlns="http://www.w3.org/2000/svg" xmlns:xlink="http://www.w3.org/1999/xlink" preserveAspectRatio="xMidYMid" width="83" height="92.03" viewBox="0 0 83 92.03">
  <defs>
    <style>
      .cls-1 {
        fill: #fff;
        fill-rule: evenodd;
      }
    </style>
  </defs>
  <path d="M54.970,31.195 C59.350,31.195 63.384,31.524 67.345,31.124 C74.606,30.389 81.418,37.400 76.546,45.807 C80.394,47.431 83.091,50.104 82.997,54.484 C82.907,58.658 80.713,61.626 76.563,63.149 C78.370,65.997 78.969,68.942 77.665,72.027 C76.357,75.120 73.828,76.804 70.615,77.605 C71.072,78.905 71.675,80.078 71.889,81.318 C72.836,86.803 68.934,91.737 63.181,91.839 C54.251,91.998 45.287,92.194 36.388,91.612 C27.929,91.060 21.378,86.737 17.324,79.111 C16.768,78.066 16.177,77.596 14.950,77.649 C12.599,77.751 10.240,77.714 7.885,77.670 C3.373,77.586 0.029,74.243 0.015,69.760 C-0.011,60.920 -0.013,52.080 0.016,43.240 C0.031,38.632 3.377,35.326 8.035,35.279 C11.707,35.243 15.380,35.329 19.049,35.229 C19.929,35.205 20.966,34.869 21.638,34.321 C27.211,29.773 32.767,25.203 38.223,20.518 C42.684,16.686 45.794,11.759 48.865,6.823 C49.849,5.242 50.764,3.595 51.926,2.150 C54.041,-0.482 57.205,-0.701 59.801,1.481 C62.987,4.160 63.536,7.816 63.343,11.640 C63.040,17.622 60.427,22.785 57.299,27.732 C56.638,28.777 55.920,29.786 54.970,31.195 ZM3.749,56.266 C3.749,60.479 3.739,64.691 3.752,68.904 C3.763,72.226 5.372,73.837 8.738,73.873 C11.509,73.903 14.282,73.942 17.051,73.855 C18.581,73.807 19.436,74.352 20.047,75.788 C22.869,82.417 28.016,86.427 35.032,87.489 C39.648,88.187 44.414,87.956 49.114,88.021 C53.892,88.087 58.674,88.071 63.452,87.960 C65.882,87.904 67.746,86.356 68.416,84.218 C69.059,82.165 68.367,79.878 66.460,78.538 C65.655,77.971 64.481,77.944 63.632,77.417 C62.866,76.941 62.315,76.120 61.669,75.451 C62.449,74.927 63.178,74.082 64.020,73.950 C65.575,73.706 67.199,73.936 68.788,73.858 C69.743,73.811 70.740,73.695 71.624,73.362 C73.822,72.534 75.086,70.381 74.869,68.119 C74.640,65.742 72.992,63.870 70.611,63.393 C69.373,63.145 67.904,63.109 68.030,61.376 C68.167,59.492 69.740,59.738 71.045,59.724 C72.084,59.712 73.126,59.770 74.162,59.707 C77.412,59.507 79.584,57.305 79.538,54.308 C79.495,51.480 77.246,49.281 74.132,49.101 C72.820,49.026 71.463,49.269 70.197,49.017 C69.341,48.847 68.128,48.207 67.923,47.524 C67.524,46.198 68.691,45.728 69.895,45.468 C73.355,44.722 75.133,42.538 74.768,39.612 C74.419,36.810 72.000,34.943 68.626,34.930 C63.707,34.910 58.788,34.963 53.870,34.900 C52.502,34.882 50.495,35.608 50.048,33.857 C49.782,32.814 50.787,31.242 51.582,30.175 C55.068,25.491 58.251,20.666 59.616,14.896 C60.343,11.824 60.537,8.719 59.048,5.793 C57.747,3.235 55.980,3.169 54.431,5.535 C53.750,6.574 53.105,7.638 52.459,8.700 C48.821,14.683 44.900,20.434 39.348,24.877 C34.002,29.157 28.696,33.487 23.308,37.712 C22.567,38.294 21.456,38.651 20.504,38.679 C16.767,38.788 13.023,38.699 9.283,38.731 C5.262,38.766 3.751,40.296 3.749,44.249 C3.747,48.255 3.749,52.260 3.749,56.266 Z" class="cls-1"/>
</svg>
