<svg xmlns="http://www.w3.org/2000/svg" xmlns:xlink="http://www.w3.org/1999/xlink" preserveAspectRatio="xMidYMid" width="56" height="74.969" viewBox="0 0 56 74.969">
  <defs>
    <style>
      .cls-1 {
        fill: #d6437a;
        fill-rule: evenodd;
      }
    </style>
  </defs>
  <path d="M55.997,72.330 C55.996,74.473 55.514,74.961 53.343,74.961 C38.701,74.965 24.058,74.963 9.416,74.963 C9.220,74.963 9.023,74.969 8.828,74.958 C7.472,74.885 6.754,74.260 6.786,73.186 C6.817,72.122 7.560,71.534 8.926,71.534 C22.979,71.531 37.033,71.532 51.086,71.532 C51.550,71.532 52.013,71.532 52.568,71.532 C52.568,51.322 52.568,31.308 52.568,11.091 C51.326,11.091 50.127,11.091 48.928,11.091 C48.535,11.090 48.142,11.104 47.751,11.084 C46.478,11.020 45.662,10.289 45.717,9.279 C45.772,8.284 46.543,7.669 47.793,7.662 C49.755,7.651 51.718,7.653 53.681,7.661 C55.434,7.669 55.994,8.233 55.995,10.015 C55.999,21.918 55.997,33.821 55.997,45.724 C55.997,54.593 55.998,63.461 55.997,72.330 ZM47.234,42.603 C47.845,42.609 48.607,43.127 49.004,43.638 C49.252,43.958 49.144,44.892 48.841,45.224 C48.454,45.649 47.713,45.941 47.119,45.951 C43.271,46.013 39.423,45.983 35.574,45.983 C31.765,45.983 27.956,45.987 24.148,45.981 C22.782,45.979 22.040,45.400 21.999,44.341 C21.958,43.269 22.685,42.570 24.027,42.567 C31.763,42.547 39.499,42.535 47.234,42.603 ZM23.945,28.128 C27.831,28.115 31.718,28.123 35.605,28.123 C39.413,28.123 43.221,28.119 47.029,28.125 C48.460,28.127 49.237,28.745 49.217,29.835 C49.198,30.878 48.419,31.509 47.089,31.511 C39.434,31.516 31.778,31.516 24.123,31.511 C22.729,31.510 21.946,30.833 21.999,29.718 C22.046,28.736 22.751,28.132 23.945,28.128 ZM23.946,60.445 C22.438,60.437 21.508,59.216 22.195,58.070 C22.481,57.593 23.223,57.112 23.762,57.108 C31.652,57.048 39.543,57.060 47.433,57.080 C48.522,57.082 49.190,57.766 49.209,58.724 C49.228,59.730 48.539,60.431 47.383,60.439 C43.457,60.463 39.531,60.448 35.606,60.448 C35.606,60.449 35.606,60.450 35.606,60.452 C31.719,60.452 27.833,60.466 23.946,60.445 ZM6.795,29.724 C6.795,28.426 6.775,27.128 6.800,25.830 C6.825,24.483 7.405,23.885 8.747,23.873 C11.371,23.848 13.997,23.851 16.621,23.871 C18.001,23.882 18.630,24.408 18.659,25.748 C18.717,28.461 18.715,31.177 18.658,33.890 C18.631,35.156 17.979,35.745 16.709,35.760 C14.045,35.793 11.380,35.794 8.716,35.759 C7.424,35.742 6.824,35.076 6.800,33.737 C6.776,32.400 6.795,31.062 6.795,29.724 ZM10.286,32.282 C11.973,32.282 13.585,32.282 15.219,32.282 C15.219,30.584 15.219,28.983 15.219,27.319 C13.574,27.319 11.984,27.319 10.286,27.319 C10.286,29.028 10.286,30.627 10.286,32.282 ZM16.651,50.235 C15.358,50.258 14.064,50.240 12.770,50.240 C11.438,50.240 10.104,50.261 8.772,50.234 C7.457,50.208 6.815,49.584 6.803,48.271 C6.777,45.595 6.777,42.918 6.803,40.242 C6.816,38.997 7.435,38.337 8.692,38.316 C11.357,38.272 14.023,38.269 16.688,38.320 C18.048,38.346 18.638,38.928 18.665,40.284 C18.719,42.959 18.721,45.636 18.668,48.312 C18.642,49.633 17.972,50.211 16.651,50.235 ZM15.214,41.778 C13.564,41.778 11.976,41.778 10.292,41.778 C10.292,43.480 10.292,45.075 10.292,46.712 C11.982,46.712 13.591,46.712 15.214,46.712 C15.214,45.018 15.214,43.424 15.214,41.778 ZM18.666,62.756 C18.637,64.148 17.992,64.669 16.563,64.709 C16.484,64.712 16.406,64.711 16.328,64.711 C15.152,64.711 13.976,64.711 12.800,64.709 C11.428,64.708 10.056,64.735 8.685,64.700 C7.442,64.668 6.814,64.035 6.803,62.782 C6.778,60.106 6.779,57.429 6.802,54.754 C6.813,53.441 7.445,52.822 8.774,52.811 C11.400,52.791 14.026,52.789 16.652,52.814 C17.996,52.826 18.634,53.386 18.663,54.729 C18.721,57.404 18.722,60.082 18.666,62.756 ZM15.223,56.269 C13.528,56.269 11.940,56.269 10.312,56.269 C10.312,57.968 10.312,59.591 10.312,61.249 C11.998,61.249 13.585,61.249 15.223,61.249 C15.223,59.575 15.223,57.973 15.223,56.269 ZM40.273,15.334 C32.108,15.359 23.944,15.359 15.779,15.337 C14.146,15.332 13.616,14.731 13.589,13.101 C13.579,12.481 13.588,11.861 13.588,11.167 C10.166,11.167 6.884,11.167 3.379,11.167 C3.379,11.697 3.379,12.227 3.379,12.757 C3.379,32.621 3.379,52.485 3.379,72.349 C3.379,74.147 2.873,74.939 1.719,74.951 C0.559,74.964 0.000,74.134 0.000,72.390 C-0.000,51.738 -0.000,31.086 0.000,10.434 C0.000,8.073 0.405,7.659 2.713,7.659 C6.280,7.659 9.848,7.659 13.410,7.659 C13.515,7.466 13.546,7.434 13.549,7.399 C13.801,4.291 13.868,4.230 16.977,4.229 C17.634,4.229 18.292,4.229 19.085,4.229 C19.085,3.402 19.066,2.704 19.089,2.007 C19.133,0.663 19.715,-0.004 21.025,-0.013 C25.617,-0.044 30.210,-0.046 34.802,-0.013 C36.339,-0.002 36.882,0.633 36.911,2.204 C36.922,2.826 36.913,3.448 36.913,4.230 C38.068,4.230 39.114,4.211 40.159,4.235 C41.848,4.275 42.397,4.838 42.407,6.538 C42.419,8.745 42.423,10.953 42.405,13.160 C42.392,14.696 41.820,15.329 40.273,15.334 ZM38.971,7.659 C37.848,7.659 36.833,7.665 35.818,7.658 C34.100,7.646 33.555,7.109 33.535,5.414 C33.528,4.765 33.534,4.117 33.534,3.471 C29.743,3.471 26.150,3.471 22.463,3.471 C22.463,4.128 22.467,4.714 22.463,5.300 C22.450,7.147 21.936,7.652 20.058,7.658 C19.054,7.662 18.051,7.659 17.028,7.659 C17.028,9.150 17.028,10.471 17.028,11.853 C24.364,11.853 31.636,11.853 38.971,11.853 C38.971,10.468 38.971,9.147 38.971,7.659 Z" class="cls-1"/>
</svg>
