<svg xmlns="http://www.w3.org/2000/svg" xmlns:xlink="http://www.w3.org/1999/xlink" preserveAspectRatio="xMidYMid" width="113" height="91" viewBox="0 0 113 91">
  <defs>
    <style>
      .cls-1 {
        fill: #fff;
        fill-rule: evenodd;
      }
    </style>
  </defs>
  <path d="M109.723,62.609 C97.385,71.135 85.028,79.623 71.985,87.099 C66.582,90.196 61.227,90.677 55.288,89.361 C45.439,87.179 35.515,85.327 25.622,83.341 C25.172,83.251 24.710,83.216 24.001,83.121 C24.001,84.193 24.038,85.053 23.995,85.908 C23.851,88.763 22.083,90.801 19.233,90.888 C14.420,91.037 9.595,91.043 4.782,90.889 C1.831,90.794 0.021,88.716 0.015,85.766 C-0.011,73.070 -0.011,60.374 0.014,47.678 C0.021,44.442 2.108,42.392 5.369,42.364 C9.726,42.328 14.083,42.336 18.440,42.361 C21.915,42.381 23.945,44.404 24.003,47.845 C24.018,48.759 24.005,49.674 24.005,50.777 C26.837,50.060 29.499,49.505 32.084,48.705 C36.611,47.304 41.026,47.366 45.570,48.787 C51.098,50.515 56.739,51.883 62.304,53.499 C63.431,53.826 64.266,53.671 65.219,53.077 C68.413,51.084 71.650,49.161 74.874,47.214 C79.787,44.247 82.566,44.444 87.084,48.132 C88.052,47.574 89.046,46.992 90.049,46.426 C93.540,44.456 97.215,44.813 100.170,47.510 C100.856,48.136 101.369,48.259 102.291,48.012 C106.385,46.917 110.392,48.803 112.171,52.524 C113.859,56.056 112.941,60.385 109.723,62.609 ZM17.951,46.086 C14.006,46.154 10.059,46.102 6.112,46.111 C4.012,46.116 3.789,46.325 3.786,48.381 C3.775,54.493 3.782,60.604 3.782,66.716 C3.782,72.827 3.810,78.939 3.762,85.050 C3.750,86.572 4.252,87.259 5.868,87.233 C9.930,87.170 13.993,87.177 18.055,87.231 C19.588,87.251 20.253,86.727 20.247,85.125 C20.209,72.845 20.208,60.564 20.248,48.284 C20.253,46.612 19.571,46.058 17.951,46.086 ZM107.776,52.777 C106.096,51.147 104.058,50.981 101.711,52.346 C96.653,55.288 91.627,58.287 86.533,61.168 C85.838,61.561 84.684,61.737 83.995,61.438 C82.561,60.816 82.760,59.134 84.348,58.183 C88.275,55.832 92.238,53.541 96.183,51.219 C96.652,50.944 97.096,50.628 97.639,50.273 C95.579,48.594 93.656,48.634 91.648,49.822 C88.108,51.916 84.551,53.983 81.010,56.077 C79.868,56.751 78.733,56.911 77.982,55.661 C77.222,54.396 77.937,53.500 79.083,52.841 C80.560,51.992 82.018,51.111 83.606,50.172 C82.016,48.901 80.419,48.478 78.872,49.324 C75.535,51.149 72.303,53.163 68.918,55.165 C71.252,56.149 73.364,56.838 75.276,57.888 C79.257,60.074 80.838,63.990 79.584,67.985 C78.271,72.167 74.410,74.767 69.946,74.277 C63.138,73.529 56.344,72.651 49.542,71.852 C48.163,71.690 47.060,71.213 47.333,69.626 C47.601,68.063 48.811,67.996 50.166,68.166 C56.904,69.012 63.646,69.827 70.392,70.605 C72.767,70.878 75.073,69.377 75.883,67.181 C76.722,64.907 76.012,62.768 73.765,61.364 C72.650,60.668 71.412,60.079 70.150,59.714 C61.408,57.187 52.666,54.653 43.874,52.308 C41.579,51.696 39.036,51.271 36.729,51.602 C32.904,52.151 29.188,53.429 25.401,54.296 C24.246,54.561 23.975,55.091 23.982,56.189 C24.027,63.348 24.024,70.506 23.986,77.663 C23.980,78.751 24.214,79.260 25.425,79.498 C35.500,81.477 45.564,83.511 55.617,85.596 C60.359,86.580 64.792,86.842 69.362,84.259 C82.559,76.801 94.979,68.191 107.442,59.634 C109.696,58.086 109.757,54.701 107.776,52.777 ZM72.711,19.886 C67.116,19.858 62.733,15.404 62.766,9.779 C62.799,4.328 67.294,-0.033 72.848,-0.002 C78.479,0.030 82.975,4.490 82.932,10.001 C82.889,15.503 78.328,19.915 72.711,19.886 ZM72.942,3.738 C69.415,3.700 66.581,6.415 66.551,9.862 C66.521,13.335 69.278,16.092 72.802,16.115 C76.272,16.137 79.155,13.316 79.140,9.913 C79.124,6.562 76.327,3.775 72.942,3.738 ZM69.093,33.729 C69.025,40.631 63.261,46.207 56.296,46.108 C49.417,46.010 43.830,40.341 43.885,33.517 C43.942,26.596 49.681,21.059 56.684,21.170 C63.631,21.281 69.161,26.877 69.093,33.729 ZM56.558,24.942 C51.586,24.912 47.727,28.715 47.716,33.653 C47.706,38.437 51.594,42.323 56.422,42.354 C61.265,42.385 65.233,38.541 65.264,33.788 C65.296,28.819 61.510,24.972 56.558,24.942 Z" class="cls-1"/>
</svg>
