<svg xmlns="http://www.w3.org/2000/svg" xmlns:xlink="http://www.w3.org/1999/xlink" preserveAspectRatio="xMidYMid" width="24" height="24" viewBox="0 0 24 24">
  <defs>
    <style>
      .cls-1 {
        fill: #fcfcfc;
        fill-rule: evenodd;
      }
    </style>
  </defs>
  <path d="M0.004,5.722 C-0.035,4.051 0.426,2.890 1.364,1.920 C1.866,1.402 2.374,0.889 2.887,0.383 C3.387,-0.109 3.908,-0.116 4.403,0.377 C6.039,2.004 7.672,3.636 9.299,5.273 C9.777,5.753 9.772,6.271 9.300,6.751 C8.602,7.460 7.886,8.153 7.203,8.877 C7.084,9.004 7.002,9.274 7.049,9.436 C8.122,13.186 10.515,15.636 14.277,16.705 C14.439,16.751 14.708,16.672 14.835,16.553 C15.558,15.869 16.252,15.155 16.959,14.454 C17.464,13.954 17.957,13.951 18.459,14.452 C20.163,16.155 21.865,17.859 23.565,19.567 C24.140,20.145 24.144,20.605 23.577,21.170 C22.964,21.780 22.364,22.407 21.713,22.975 C20.737,23.826 19.555,24.112 18.290,24.015 C11.881,23.525 6.820,20.650 3.200,15.321 C1.175,12.340 0.174,8.999 0.004,5.722 ZM3.609,2.237 C3.309,2.567 3.014,2.899 2.710,3.224 C2.221,3.747 1.840,4.350 1.892,5.074 C1.977,6.249 2.053,7.440 2.311,8.585 C3.918,15.711 9.927,21.124 17.157,21.999 C17.895,22.088 18.660,22.148 19.391,22.054 C20.436,21.921 21.025,21.055 21.672,20.408 C20.324,19.060 18.999,17.736 17.684,16.421 C17.186,16.908 16.640,17.402 16.141,17.939 C15.513,18.616 14.784,18.805 13.908,18.560 C9.393,17.296 6.524,14.381 5.213,9.893 C4.944,8.970 5.142,8.193 5.860,7.539 C6.389,7.056 6.892,6.544 7.385,6.065 C6.109,4.771 4.894,3.540 3.609,2.237 Z" class="cls-1"/>
</svg>
