<svg xmlns="http://www.w3.org/2000/svg" xmlns:xlink="http://www.w3.org/1999/xlink" preserveAspectRatio="xMidYMid" width="93" height="95.97" viewBox="0 0 93 95.97">
  <defs>
    <style>
      .cls-1 {
        fill: #fff;
        fill-rule: evenodd;
      }
    </style>
  </defs>
  <path d="M88.989,53.905 C92.492,54.458 92.999,55.065 93.000,58.479 C93.000,61.490 93.000,64.501 93.000,67.512 C92.999,71.058 92.543,71.613 88.989,72.192 C88.989,72.686 88.989,73.213 88.989,73.740 C88.989,78.726 88.996,83.711 88.987,88.697 C88.978,93.689 86.733,95.969 81.849,95.969 C56.816,95.969 31.783,95.970 6.751,95.969 C2.303,95.968 0.002,93.632 0.002,89.108 C-0.000,69.314 0.000,49.520 0.004,29.725 C0.004,29.184 0.054,28.642 0.061,28.100 C0.101,25.220 1.635,23.595 4.281,22.791 C9.280,21.271 14.260,19.685 19.250,18.136 C38.186,12.259 57.123,6.385 76.061,0.514 C76.620,0.340 77.183,0.150 77.758,0.063 C80.522,-0.355 82.672,1.343 82.943,4.144 C83.005,4.780 83.021,5.423 83.022,6.064 C83.028,11.642 83.037,17.220 83.014,22.798 C83.011,23.644 83.159,24.108 84.137,24.300 C86.835,24.829 88.473,26.684 88.857,29.442 C88.952,30.123 88.983,30.818 88.984,31.506 C88.993,38.417 88.989,45.328 88.989,52.239 C88.989,52.776 88.989,53.314 88.989,53.905 ZM82.875,53.986 C82.932,53.700 83.002,53.515 83.002,53.330 C83.010,46.717 83.049,40.103 82.993,33.491 C82.973,31.125 81.856,30.170 79.463,30.170 C56.097,30.167 32.731,30.168 9.365,30.169 C6.349,30.169 5.969,30.547 5.969,33.552 C5.968,51.072 5.968,68.593 5.969,86.113 C5.969,89.036 6.924,89.996 9.840,89.996 C32.913,89.998 55.986,89.997 79.058,89.997 C81.998,89.997 83.007,88.991 83.018,85.994 C83.033,81.849 83.025,77.703 83.017,73.557 C83.016,73.086 82.950,72.615 82.905,72.028 C82.238,72.028 81.709,72.028 81.180,72.028 C77.025,72.028 72.870,72.049 68.715,72.019 C66.284,72.001 65.242,70.922 65.231,68.478 C65.214,64.875 65.215,61.272 65.230,57.670 C65.241,55.129 66.268,54.081 68.801,54.067 C72.956,54.044 77.111,54.063 81.267,54.057 C81.790,54.056 82.314,54.011 82.875,53.986 ZM77.033,24.040 C77.033,18.792 77.057,13.622 76.977,8.454 C76.972,8.109 76.213,7.641 75.725,7.483 C75.378,7.370 74.894,7.679 74.474,7.807 C60.274,12.134 46.073,16.460 31.873,20.791 C28.631,21.779 25.392,22.783 22.152,23.781 C22.168,23.867 22.184,23.954 22.200,24.040 C40.399,24.040 58.597,24.040 77.033,24.040 ZM86.944,65.976 C86.944,64.005 86.944,62.114 86.944,60.166 C81.663,60.166 76.470,60.166 71.223,60.166 C71.223,62.144 71.223,64.036 71.223,65.976 C76.499,65.976 81.695,65.976 86.944,65.976 Z" class="cls-1"/>
</svg>
