<svg xmlns="http://www.w3.org/2000/svg" xmlns:xlink="http://www.w3.org/1999/xlink" preserveAspectRatio="xMidYMid" width="35" height="35" viewBox="0 0 35 35">
  <defs>
    <style>
      .cls-1 {
        fill: #96c33d;
        fill-rule: evenodd;
      }
    </style>
  </defs>
  <path d="M17.284,35.001 C7.558,34.846 -0.248,26.814 0.006,17.029 C0.254,7.516 8.172,-0.266 18.008,0.007 C27.403,0.267 35.239,8.042 34.996,17.969 C34.765,27.475 26.915,35.088 17.284,35.001 ZM17.517,2.450 C9.269,2.441 2.469,9.157 2.453,17.325 C2.436,25.762 9.106,32.534 17.451,32.551 C25.731,32.567 32.549,25.836 32.557,17.637 C32.565,9.209 25.879,2.458 17.517,2.450 ZM25.361,26.025 C24.812,26.256 24.358,26.078 23.959,25.672 C23.022,24.718 22.079,23.769 21.150,22.831 C16.694,25.697 12.348,23.882 10.341,21.115 C8.138,18.079 8.462,13.849 11.134,11.173 C13.826,8.477 18.049,8.182 21.133,10.428 C23.814,12.380 25.651,16.743 22.825,21.151 C23.787,22.097 24.740,23.005 25.660,23.946 C26.397,24.700 26.246,25.652 25.361,26.025 ZM16.660,11.306 C13.837,11.242 11.411,13.562 11.310,16.420 C11.209,19.274 13.525,21.704 16.444,21.808 C19.300,21.910 21.730,19.583 21.813,16.667 C21.895,13.793 19.567,11.370 16.660,11.306 Z" class="cls-1"/>
</svg>
