<svg xmlns="http://www.w3.org/2000/svg" xmlns:xlink="http://www.w3.org/1999/xlink" preserveAspectRatio="xMidYMid" width="145" height="72" viewBox="0 0 145 72">
  <defs>
    <style>
      .cls-1 {
        fill: #fff;
        fill-rule: evenodd;
      }
    </style>
  </defs>
  <path d="M31.086,39.193 C28.626,39.193 26.406,39.195 24.186,39.193 C23.051,39.192 21.867,39.131 21.870,37.601 C21.873,36.054 23.116,36.032 24.212,36.016 C26.374,35.983 28.537,36.006 30.892,36.006 C30.892,33.405 30.892,30.930 30.892,28.172 C30.022,28.172 29.181,28.172 28.341,28.172 C19.893,28.172 11.445,28.174 2.997,28.167 C2.350,28.167 1.621,28.276 1.081,28.017 C0.587,27.780 0.001,27.114 0.001,26.636 C0.000,26.165 0.595,25.505 1.089,25.273 C1.633,25.018 2.360,25.129 3.007,25.128 C11.382,25.121 19.758,25.124 28.134,25.124 C28.997,25.124 29.859,25.124 30.903,25.124 C30.903,22.000 30.903,19.005 30.903,15.695 C28.727,15.695 26.507,15.830 24.318,15.628 C23.457,15.549 22.069,14.826 21.957,14.207 C21.660,12.578 23.128,12.532 24.303,12.516 C26.460,12.485 28.618,12.507 31.086,12.507 C31.086,9.178 31.159,6.011 31.060,2.850 C30.997,0.830 31.688,-0.005 33.801,0.000 C53.874,0.052 73.947,0.050 94.020,0.001 C96.033,-0.004 96.724,0.823 96.692,2.716 C96.638,5.883 96.677,9.052 96.677,12.504 C100.890,12.504 104.841,12.600 108.784,12.464 C110.743,12.397 111.950,13.066 113.060,14.694 C116.932,20.372 120.930,25.965 124.972,31.522 C125.478,32.218 126.496,32.820 127.349,32.936 C134.924,33.969 139.950,39.424 140.274,47.140 C140.313,48.081 140.363,49.029 140.294,49.966 C140.148,51.915 140.225,53.474 142.563,54.361 C144.473,55.084 145.308,57.727 144.899,59.757 C144.441,62.032 142.677,63.863 140.352,64.098 C138.205,64.316 136.028,64.295 133.866,64.268 C132.661,64.253 132.006,64.556 131.405,65.775 C129.419,69.804 126.112,72.008 121.547,71.984 C116.986,71.960 113.704,69.739 111.746,65.686 C111.194,64.543 110.570,64.273 109.447,64.275 C94.645,64.298 79.842,64.303 65.041,64.268 C63.863,64.265 63.296,64.656 62.770,65.737 C60.794,69.807 57.473,72.009 52.942,72.002 C48.415,71.994 45.057,69.817 43.133,65.720 C42.537,64.453 41.790,64.276 40.628,64.274 C37.454,64.267 34.273,64.300 31.109,64.088 C28.791,63.933 27.297,62.452 26.683,60.220 C26.069,57.987 26.469,55.518 28.510,54.686 C31.584,53.433 31.073,51.193 31.083,48.913 C31.096,45.798 31.086,42.684 31.086,39.193 ZM93.334,53.263 C93.334,36.384 93.334,19.830 93.334,3.324 C73.580,3.324 53.990,3.324 34.445,3.324 C34.445,6.437 34.445,9.372 34.445,12.504 C35.472,12.504 36.325,12.504 37.178,12.504 C44.327,12.504 51.475,12.503 58.623,12.506 C59.272,12.507 60.021,12.340 60.546,12.606 C61.204,12.939 61.679,13.638 62.233,14.179 C61.638,14.682 61.098,15.285 60.428,15.649 C60.036,15.862 59.438,15.695 58.932,15.695 C51.567,15.696 44.202,15.696 36.837,15.696 C36.063,15.696 35.290,15.696 34.441,15.696 C34.441,18.937 34.441,21.926 34.441,25.123 C35.393,25.123 36.173,25.123 36.953,25.123 C38.974,25.124 41.008,25.002 43.012,25.192 C43.731,25.260 44.854,25.992 44.964,26.579 C45.211,27.891 44.088,28.183 42.967,28.171 C42.245,28.163 41.523,28.172 40.801,28.172 C38.670,28.172 36.539,28.172 34.459,28.172 C34.459,30.995 34.459,33.414 34.459,36.003 C35.506,36.003 36.363,36.003 37.219,36.003 C43.140,36.003 49.061,35.992 54.982,36.014 C56.132,36.019 57.525,35.955 57.489,37.645 C57.453,39.320 56.076,39.189 54.919,39.191 C48.853,39.198 42.788,39.194 36.723,39.194 C35.957,39.194 35.191,39.194 34.439,39.194 C34.439,44.040 34.439,48.563 34.439,53.263 C37.626,53.263 40.650,53.334 43.666,53.221 C44.589,53.186 45.628,52.839 46.385,52.307 C50.426,49.466 55.307,49.444 59.357,52.213 C60.231,52.810 61.427,53.206 62.480,53.218 C69.772,53.304 77.066,53.263 84.358,53.263 C87.306,53.263 90.254,53.263 93.334,53.263 ZM137.140,53.258 C137.140,50.728 137.301,48.480 137.107,46.264 C136.694,41.531 133.518,37.654 129.116,36.502 C127.606,36.107 125.980,36.037 124.406,36.026 C117.551,35.977 110.695,35.997 103.840,36.011 C102.597,36.013 101.368,35.909 101.341,34.326 C101.273,30.270 101.257,26.210 101.394,22.158 C101.413,21.606 102.431,21.089 102.986,20.556 C103.475,21.170 104.345,21.759 104.385,22.401 C104.553,25.071 104.464,27.758 104.486,30.438 C104.492,31.207 104.558,31.976 104.597,32.780 C110.381,32.780 115.946,32.780 121.495,32.780 C121.495,32.468 121.551,32.291 121.487,32.200 C117.834,26.993 114.177,21.788 110.492,16.603 C110.224,16.227 109.743,15.757 109.355,15.752 C105.195,15.690 101.033,15.713 96.818,15.713 C96.818,28.337 96.818,40.685 96.818,53.253 C102.421,53.253 107.887,53.279 113.353,53.214 C113.914,53.208 114.507,52.719 115.020,52.361 C119.276,49.397 123.896,49.391 128.135,52.329 C128.702,52.722 129.370,53.186 130.010,53.216 C132.305,53.323 134.609,53.258 137.140,53.258 ZM64.049,60.918 C79.698,60.918 95.160,60.918 110.551,60.918 C110.866,59.398 111.144,58.063 111.433,56.667 C95.323,56.667 79.250,56.667 63.088,56.667 C63.438,58.215 63.738,59.544 64.049,60.918 ZM121.640,68.898 C125.867,68.879 129.362,65.398 129.393,61.175 C129.425,56.891 125.802,53.239 121.553,53.271 C117.367,53.302 113.842,56.839 113.804,61.045 C113.764,65.364 117.308,68.916 121.640,68.898 ZM45.234,60.888 C45.125,65.204 48.393,68.744 52.618,68.887 C57.005,69.035 60.562,65.705 60.691,61.331 C60.818,57.001 57.385,53.378 53.054,53.272 C48.870,53.170 45.343,56.605 45.234,60.888 ZM42.808,56.485 C38.942,56.485 35.338,56.358 31.757,56.588 C31.004,56.637 29.776,58.005 29.781,58.758 C29.786,59.530 30.992,60.902 31.748,60.957 C35.103,61.198 38.484,61.061 41.865,61.061 C42.183,59.516 42.458,58.181 42.808,56.485 ZM132.623,61.055 C135.060,61.055 137.451,61.252 139.776,60.946 C140.562,60.842 141.633,59.514 141.727,58.653 C141.797,58.015 140.550,56.677 139.798,56.604 C137.166,56.347 134.495,56.504 131.675,56.504 C131.908,57.406 132.110,58.083 132.253,58.773 C132.397,59.465 132.482,60.170 132.623,61.055 Z" class="cls-1"/>
</svg>
